<mxfile host="app.diagrams.net" agent="Mozilla/5.0 (Windows NT 10.0; Win64; x64) AppleWebKit/537.36 (KHTML, like Gecko) Chrome/133.0.0.0 Safari/537.36 Edg/133.0.0.0" version="26.0.16">
  <diagram name="Trang-1" id="1XFHpcekjJdeE8bqnlt8">
    <mxGraphModel dx="2053" dy="665" grid="1" gridSize="10" guides="1" tooltips="1" connect="1" arrows="1" fold="1" page="1" pageScale="1" pageWidth="827" pageHeight="1169" math="0" shadow="0">
      <root>
        <mxCell id="0" />
        <mxCell id="1" parent="0" />
        <mxCell id="JJnxF_5oPg-3WOcQUH46-1" value="QUẢN LÝ THƯ VIỆN" style="rounded=0;whiteSpace=wrap;html=1;" vertex="1" parent="1">
          <mxGeometry x="380" y="70" width="350" height="60" as="geometry" />
        </mxCell>
        <mxCell id="JJnxF_5oPg-3WOcQUH46-2" value="Thống kê và báo cáo" style="rounded=0;whiteSpace=wrap;html=1;" vertex="1" parent="1">
          <mxGeometry x="910" y="190" width="180" height="60" as="geometry" />
        </mxCell>
        <mxCell id="JJnxF_5oPg-3WOcQUH46-3" value="Quản lý vi phạm và phạt" style="rounded=0;whiteSpace=wrap;html=1;" vertex="1" parent="1">
          <mxGeometry x="690" y="190" width="180" height="60" as="geometry" />
        </mxCell>
        <mxCell id="JJnxF_5oPg-3WOcQUH46-4" value="Quản lý mượn / trả" style="rounded=0;whiteSpace=wrap;html=1;" vertex="1" parent="1">
          <mxGeometry x="470" y="190" width="180" height="60" as="geometry" />
        </mxCell>
        <mxCell id="JJnxF_5oPg-3WOcQUH46-5" value="Quản lý sách" style="rounded=0;whiteSpace=wrap;html=1;" vertex="1" parent="1">
          <mxGeometry x="250" y="190" width="180" height="60" as="geometry" />
        </mxCell>
        <mxCell id="JJnxF_5oPg-3WOcQUH46-6" value="Quản lý bạn đọc" style="rounded=0;whiteSpace=wrap;html=1;" vertex="1" parent="1">
          <mxGeometry x="30" y="190" width="180" height="60" as="geometry" />
        </mxCell>
        <mxCell id="JJnxF_5oPg-3WOcQUH46-8" value="Tìm kiếm thông tin bạn đọc" style="rounded=0;whiteSpace=wrap;html=1;" vertex="1" parent="1">
          <mxGeometry x="30" y="490" width="180" height="60" as="geometry" />
        </mxCell>
        <mxCell id="JJnxF_5oPg-3WOcQUH46-9" value="Cập nhật thẻ bạn đọc" style="rounded=0;whiteSpace=wrap;html=1;" vertex="1" parent="1">
          <mxGeometry x="30" y="390" width="180" height="60" as="geometry" />
        </mxCell>
        <mxCell id="JJnxF_5oPg-3WOcQUH46-10" value="Làm thẻ bạn đọc" style="rounded=0;whiteSpace=wrap;html=1;" vertex="1" parent="1">
          <mxGeometry x="30" y="290" width="180" height="60" as="geometry" />
        </mxCell>
        <mxCell id="JJnxF_5oPg-3WOcQUH46-11" value="Xóa thẻ bạn đọc" style="rounded=0;whiteSpace=wrap;html=1;" vertex="1" parent="1">
          <mxGeometry x="30" y="590" width="180" height="60" as="geometry" />
        </mxCell>
        <mxCell id="JJnxF_5oPg-3WOcQUH46-12" value="Xử lý sách quá hạn, hư hỏng" style="rounded=0;whiteSpace=wrap;html=1;" vertex="1" parent="1">
          <mxGeometry x="250" y="490" width="180" height="60" as="geometry" />
        </mxCell>
        <mxCell id="JJnxF_5oPg-3WOcQUH46-13" value="Cập nhật thông tin sách" style="rounded=0;whiteSpace=wrap;html=1;" vertex="1" parent="1">
          <mxGeometry x="250" y="390" width="180" height="60" as="geometry" />
        </mxCell>
        <mxCell id="JJnxF_5oPg-3WOcQUH46-14" value="Tìm kiếm thông tin sách" style="rounded=0;whiteSpace=wrap;html=1;" vertex="1" parent="1">
          <mxGeometry x="250" y="290" width="180" height="60" as="geometry" />
        </mxCell>
        <mxCell id="JJnxF_5oPg-3WOcQUH46-15" value="Xử lý yêu cầu trả sách" style="rounded=0;whiteSpace=wrap;html=1;" vertex="1" parent="1">
          <mxGeometry x="470" y="390" width="180" height="60" as="geometry" />
        </mxCell>
        <mxCell id="JJnxF_5oPg-3WOcQUH46-16" value="Xử lý yêu cầu mượn sách" style="rounded=0;whiteSpace=wrap;html=1;" vertex="1" parent="1">
          <mxGeometry x="470" y="290" width="180" height="60" as="geometry" />
        </mxCell>
        <mxCell id="JJnxF_5oPg-3WOcQUH46-17" value="Báo cáo" style="rounded=0;whiteSpace=wrap;html=1;" vertex="1" parent="1">
          <mxGeometry x="910" y="390" width="180" height="60" as="geometry" />
        </mxCell>
        <mxCell id="JJnxF_5oPg-3WOcQUH46-18" value="Thống kê" style="rounded=0;whiteSpace=wrap;html=1;" vertex="1" parent="1">
          <mxGeometry x="910" y="280" width="180" height="60" as="geometry" />
        </mxCell>
        <mxCell id="JJnxF_5oPg-3WOcQUH46-19" value="Tiếp nhận sách hư hỏng" style="whiteSpace=wrap;html=1;" vertex="1" parent="1">
          <mxGeometry x="690" y="290" width="170" height="60" as="geometry" />
        </mxCell>
        <mxCell id="JJnxF_5oPg-3WOcQUH46-20" value="Xử phạt&amp;nbsp;" style="whiteSpace=wrap;html=1;" vertex="1" parent="1">
          <mxGeometry x="690" y="390" width="170" height="60" as="geometry" />
        </mxCell>
        <mxCell id="JJnxF_5oPg-3WOcQUH46-26" value="" style="endArrow=none;html=1;rounded=0;" edge="1" parent="1">
          <mxGeometry width="50" height="50" relative="1" as="geometry">
            <mxPoint x="120" y="160" as="sourcePoint" />
            <mxPoint x="1000" y="160" as="targetPoint" />
            <Array as="points" />
          </mxGeometry>
        </mxCell>
        <mxCell id="JJnxF_5oPg-3WOcQUH46-27" value="" style="endArrow=none;html=1;rounded=0;" edge="1" parent="1">
          <mxGeometry width="50" height="50" relative="1" as="geometry">
            <mxPoint x="-20" y="225" as="sourcePoint" />
            <mxPoint x="-20" y="620" as="targetPoint" />
            <Array as="points" />
          </mxGeometry>
        </mxCell>
        <mxCell id="JJnxF_5oPg-3WOcQUH46-28" value="" style="endArrow=none;html=1;rounded=0;entryX=0;entryY=0.5;entryDx=0;entryDy=0;" edge="1" parent="1" target="JJnxF_5oPg-3WOcQUH46-6">
          <mxGeometry width="50" height="50" relative="1" as="geometry">
            <mxPoint x="-20" y="250" as="sourcePoint" />
            <mxPoint x="70" y="180" as="targetPoint" />
            <Array as="points">
              <mxPoint x="-20" y="220" />
            </Array>
          </mxGeometry>
        </mxCell>
        <mxCell id="JJnxF_5oPg-3WOcQUH46-29" value="" style="endArrow=none;html=1;rounded=0;entryX=0;entryY=0.5;entryDx=0;entryDy=0;" edge="1" parent="1" target="JJnxF_5oPg-3WOcQUH46-10">
          <mxGeometry width="50" height="50" relative="1" as="geometry">
            <mxPoint x="-20" y="320" as="sourcePoint" />
            <mxPoint x="40" y="230" as="targetPoint" />
            <Array as="points" />
          </mxGeometry>
        </mxCell>
        <mxCell id="JJnxF_5oPg-3WOcQUH46-30" value="" style="endArrow=none;html=1;rounded=0;" edge="1" parent="1">
          <mxGeometry width="50" height="50" relative="1" as="geometry">
            <mxPoint x="30" y="420" as="sourcePoint" />
            <mxPoint x="30" y="420" as="targetPoint" />
            <Array as="points">
              <mxPoint x="-20" y="420" />
            </Array>
          </mxGeometry>
        </mxCell>
        <mxCell id="JJnxF_5oPg-3WOcQUH46-32" value="" style="endArrow=none;html=1;rounded=0;exitX=0;exitY=0.5;exitDx=0;exitDy=0;" edge="1" parent="1" source="JJnxF_5oPg-3WOcQUH46-8">
          <mxGeometry width="50" height="50" relative="1" as="geometry">
            <mxPoint x="520" y="420" as="sourcePoint" />
            <mxPoint x="30" y="520" as="targetPoint" />
            <Array as="points">
              <mxPoint x="-20" y="520" />
            </Array>
          </mxGeometry>
        </mxCell>
        <mxCell id="JJnxF_5oPg-3WOcQUH46-58" value="" style="endArrow=none;html=1;rounded=0;entryX=0;entryY=0.5;entryDx=0;entryDy=0;exitX=0;exitY=0.5;exitDx=0;exitDy=0;" edge="1" parent="1" source="JJnxF_5oPg-3WOcQUH46-11" target="JJnxF_5oPg-3WOcQUH46-11">
          <mxGeometry width="50" height="50" relative="1" as="geometry">
            <mxPoint x="40" y="430" as="sourcePoint" />
            <mxPoint x="40" y="430" as="targetPoint" />
            <Array as="points">
              <mxPoint x="-20" y="620" />
            </Array>
          </mxGeometry>
        </mxCell>
      </root>
    </mxGraphModel>
  </diagram>
</mxfile>
